<svg height="496pt" viewBox="0 0 496 496" width="496pt" xmlns="http://www.w3.org/2000/svg"><path d="m392 186.097656v-18.097656c0-22.054688-17.945312-40-40-40h-224c-22.054688 0-40 17.945312-40 40v32c0 22.054688 17.945312 40 40 40h216.550781c3.28125-26.207031 22.378907-47.433594 47.449219-53.902344zm0 0" fill="#43ab35"/><path d="m232 160h16v16h-16zm0 0"/><path d="m232 192h16v16h-16zm0 0"/><path d="m248 176h16v16h-16zm0 0"/><path d="m216 176h16v16h-16zm0 0"/><path d="m312 160h16v16h-16zm0 0"/><path d="m312 192h16v16h-16zm0 0"/><path d="m328 176h16v16h-16zm0 0"/><path d="m296 176h16v16h-16zm0 0"/><path d="m152 160h16v16h-16zm0 0"/><path d="m152 192h16v16h-16zm0 0"/><path d="m168 176h16v16h-16zm0 0"/><path d="m136 176h16v16h-16zm0 0"/><path d="m160 336h16v112h-16zm0 0"/><path d="m160 464h16v16h-16zm0 0"/><path d="m208 400h16v16h-16zm0 0"/><path d="m208 336h16v48h-16zm0 0"/><path d="m256 432h16v16h-16zm0 0"/><path d="m256 336h16v80h-16zm0 0"/><path d="m112 416h16v16h-16zm0 0"/><path d="m112 336h16v64h-16zm0 0"/><path d="m115.304688 98.390625-15.265626-4.789063c4.207032-13.425781 11.722657-25.816406 21.738282-35.832031 16.613281-16.617187 38.71875-25.769531 62.222656-25.769531v16c-19.230469 0-37.320312 7.488281-50.910156 21.089844-8.203125 8.199218-14.347656 18.324218-17.785156 29.300781zm0 0"/><path d="m496 160c0-52.9375-43.0625-96-96-96-16.566406 0-32.632812 4.199219-46.910156 12.222656-16.496094-21.636718-43.84375-32.65625-71.890625-26.613281-22.574219-31.167969-58.503907-49.609375-97.199219-49.609375-60.558594 0-110.792969 44.191406-118.847656 103.609375-39.175782 15.78125-65.152344 53.894531-65.152344 96.390625 0 57.34375 46.65625 104 104 104h232v6.753906h16v-62.753906c0-30.878906 25.121094-56 56-56s56 25.121094 56 56v62.753906h16v-62.753906c0-9.769531-1.976562-19.078125-5.519531-27.585938 13.863281-17.070312 21.519531-38.285156 21.519531-60.414062zm-88 16c-39.695312 0-72 32.304688-72 72v40h-232c-48.519531 0-88-39.480469-88-88 0-37.390625 23.777344-70.769531 59.160156-83.054688l4.855469-1.6875.480469-5.121093c5.054687-53.664063 49.550781-94.136719 103.503906-94.136719 35.183594 0 67.71875 17.585938 86.832031 46.710938l3.152344 5.503906 6.078125-1.808594c25.769531-7.664062 50.914062 3.257812 63.882812 24.761719l4.351563 7.214843 6.984375-4.71875c13.214844-8.9375 28.679688-13.664062 44.71875-13.664062 44.113281 0 80 35.886719 80 80 0 16.328125-5.015625 32.039062-14.160156 45.304688-13.128906-17.738282-34.128906-29.304688-57.839844-29.304688zm0 0"/><path d="m408 496c-2.710938 0-5.726562-.246094-9.214844-.761719-44.921875-6.566406-78.785156-46.636719-78.785156-93.199219v-86.039062l3.199219-2.398438c1.394531-1.050781 34.703125-25.601562 84.800781-25.601562s83.40625 24.550781 84.800781 25.601562l3.199219 2.398438v86.039062c0 46.5625-33.863281 86.632813-78.777344 93.199219-3.496094.515625-6.511718.761719-9.222656.761719zm0 0" fill="#43ab35"/><path d="m441.3125 448h-66.625l8.648438-56.679688c-9.574219-7.527343-15.335938-19.097656-15.335938-31.320312 0-22.054688 17.945312-40 40-40s40 17.945312 40 40c0 12.222656-5.761719 23.792969-15.335938 31.320312zm-48-16h29.375l-7.414062-48.609375 4.703124-2.742187c7.527344-4.382813 12.023438-12.105469 12.023438-20.648438 0-13.230469-10.769531-24-24-24s-24 10.769531-24 24c0 8.542969 4.496094 16.265625 12.023438 20.648438l4.703124 2.742187zm0 0"/></svg>